# xmcd
#
# Track frame offsets:
#	150
#	13225
#	30199
#	46149
#	64942
#	80757
#	95409
#	111828
#	125700
#	142626
#	157784
#	171092
#	187483
#	205477
#	221290
#	232927
#	246491
#
# Disc length: 3392 seconds
#
# Revision: 1
# Processed by: cddbd v1.5.2PL0 Copyright (c) Steve Scherf et al.
# Submitted via: audiograbber 1.83.01
#
DISCID=e90d3e11
DTITLE=Hans-Jürgen Hufeisen - Abendstille
DYEAR=1900
DGENRE=
TTITLE0=Zur guten Nacht - Ade zur guten Nacht
TTITLE1=Nachtigall zur Abendstille - Abendstille überall
TTITLE2=Abendsonne - Der lieben Sonne Licht und Pracht
TTITLE3=Mit Rosen bedacht - Guten Abend, gute Nacht
TTITLE4=Einkehr zur Ruhe - Abend wird es wieder
TTITLE5=Mein guter Mond - Guter Mond
TTITLE6=Mondnacht - Der Mond ist aufgegangen
TTITLE7=Schreitende Stille - Hinunter ist der Sonnenschein
TTITLE8=Stern der Liebe - Jesus bleibet meine Freude
TTITLE9=Himmelstür - Jesu, geh voran
TTITLE10=Glanz der Sterne - Nun sich der Tag geendet hat
TTITLE11=Flügel umhüllen - Nun ruhen alle Wälder
TTITLE12=Sternengesang - Weißt du, wieviel Sternlein stehen
TTITLE13=Hüter der Nacht - Bleibe bei mir (Abide with me)
TTITLE14=Klang des Trostes - So nimm denn meine Hände
TTITLE15=Stille über weitem Land
TTITLE16=Morgenlicht - nach einem gälischen Morgenlied
EXTD=
EXTT0=
EXTT1=
EXTT2=
EXTT3=
EXTT4=
EXTT5=
EXTT6=
EXTT7=
EXTT8=
EXTT9=
EXTT10=
EXTT11=
EXTT12=
EXTT13=
EXTT14=
EXTT15=
EXTT16=
PLAYORDER=
